<?xml version="1.0" encoding="utf-8"?>
<!-- Generator: Adobe Illustrator 19.2.1, SVG Export Plug-In . SVG Version: 6.00 Build 0)  -->
<svg version="1.1" baseProfile="tiny" id="Ebene_1" xmlns="http://www.w3.org/2000/svg" xmlns:xlink="http://www.w3.org/1999/xlink"
	 x="0px" y="0px" viewBox="0 0 16 16" xml:space="preserve">
<g>
	<g>
		<path fill="#C3392E" d="M5.4,1.4c1.4-0.5,3-0.5,4.4,0c0.8,0.3,1.5,0.7,2.1,1.3c-0.2,0.2-0.4,0.4-0.6,0.6c-0.4,0.4-0.8,0.8-1.2,1.2
			C9.7,4.2,9.2,4,8.6,3.8C8,3.6,7.4,3.6,6.7,3.7C6,3.9,5.3,4.3,4.8,4.8C4.4,5.2,4,5.9,3.8,6.4C3.1,5.9,2.4,5.2,1.7,4.7
			C2.5,3.2,3.8,2,5.4,1.4z"/>
	</g>
	<g>
		<path fill="#E8BB2C" d="M1.1,6.3c0.1-0.6,0.3-1.1,0.6-1.6c0.7,0.6,1.4,1.1,2.1,1.7c-0.3,0.8-0.3,1.7,0,2.5
			C3.1,9.4,2.4,10,1.7,10.5C1,9.2,0.8,7.7,1.1,6.3z"/>
	</g>
	<g>
		<path fill="#647CB8" d="M7.5,6.4c2,0,4.1,0,6.1,0c0.2,1.1,0.2,2.3-0.2,3.5c-0.3,1-0.9,2-1.7,2.7c-0.7-0.5-1.4-1.1-2.1-1.6
			c0.7-0.5,1.2-1.2,1.3-2C9.7,9,8.5,9,7.3,9C7.5,8.1,7.5,7.2,7.5,6.4z"/>
	</g>
	<g>
		<path fill="#629D4B" d="M1.7,10.5C2.4,10,3.1,9.4,3.8,8.9c0.3,0.8,0.8,1.5,1.5,2c0.4,0.3,0.9,0.5,1.5,0.6c0.5,0.1,1,0.1,1.6,0
			c0.5-0.1,1-0.3,1.4-0.6c0.7,0.5,1.4,1.1,2.1,1.6c-0.7,0.7-1.7,1.2-2.7,1.4c-1.1,0.2-2.2,0.3-3.3,0c-0.9-0.2-1.7-0.6-2.4-1.2
			C2.7,12.1,2.1,11.4,1.7,10.5z"/>
	</g>
</g>
<path d="M15.4,10.1c-0.2-0.2-0.5-0.2-0.7,0l-1.2,1.2l-1-1L13.6,9c0.2-0.2,0.2-0.5,0-0.7s-0.5-0.2-0.7,0l-1.2,1.2l-0.8-0.8l-2.7,2.7
	C8,11.6,8,12,8.2,12.2l3.3,3.3c0.2,0.2,0.6,0.2,0.8,0l2.7-2.7L14.2,12l1.2-1.2C15.6,10.6,15.6,10.3,15.4,10.1z"/>
</svg>
