<?xml version="1.0" encoding="utf-8"?>
<!-- Generator: Adobe Illustrator 19.2.1, SVG Export Plug-In . SVG Version: 6.00 Build 0)  -->
<svg version="1.1" baseProfile="tiny" id="Ebene_1" xmlns="http://www.w3.org/2000/svg" xmlns:xlink="http://www.w3.org/1999/xlink"
	 x="0px" y="0px" viewBox="0 0 16 16" xml:space="preserve">
<g>
	<g>
		<path fill="#FFFFFF" d="M13.3,2.5c0-0.5-0.4-0.9-0.9-0.9c-2.2,0-8,0-10.1,0C1.8,1.6,1.5,2,1.5,2.4v10.2c0,0.5,0.4,0.9,0.9,0.9
			h10.2c0.5,0,0.8-0.4,0.8-0.8L13.3,2.5L13.3,2.5z"/>
		<g>
			<g>
				<path fill="#E69724" d="M1.5,2.4v7l3.2-3.2L7.5,9l5.9-6V2.5c0-0.5-0.4-0.9-0.9-0.9c-2.2,0-8,0-10.1,0C1.9,1.6,1.5,1.9,1.5,2.4z"
					/>
			</g>
			<g>
				<polygon fill="#E69724" points="6.2,7.6 4.7,8.9 6.2,10.4 				"/>
			</g>
			<g>
				<path fill="#DE5823" d="M1.5,12.1v0.5c0,0.5,0.4,0.9,0.9,0.9h10.2c0.5,0,0.8-0.4,0.8-0.8V5.8l-5.9,5.9L4.7,8.9L1.5,12.1z"/>
			</g>
		</g>
	</g>
	<path d="M15.1,9.8c-0.2-0.2-0.5-0.2-0.7,0L13.2,11l-1-1l1.2-1.2c0.2-0.2,0.2-0.5,0-0.7s-0.5-0.2-0.7,0l-1.2,1.2l-0.8-0.8L8,11.2
		c-0.2,0.2-0.2,0.6,0,0.8l3.3,3.3c0.2,0.2,0.6,0.2,0.8,0l2.7-2.7L14,11.8l1.2-1.2C15.3,10.3,15.3,10,15.1,9.8z"/>
</g>
</svg>
