<?xml version="1.0" encoding="utf-8"?>
<!-- Generator: Adobe Illustrator 19.2.1, SVG Export Plug-In . SVG Version: 6.00 Build 0)  -->
<svg version="1.1" baseProfile="tiny" id="Ebene_1" xmlns="http://www.w3.org/2000/svg" xmlns:xlink="http://www.w3.org/1999/xlink"
	 x="0px" y="0px" viewBox="0 0 16 16" xml:space="preserve">
<g>
	<g>
		<path fill="#FFFFFF" d="M14,3c0-0.5-0.4-0.9-0.9-0.9c-2.2,0-8,0-10.1,0c-0.5,0-0.8,0.4-0.8,0.8l0,10.2c0,0.5,0.4,0.9,0.9,0.9h10.2
			c0.5,0,0.8-0.4,0.8-0.8V3z"/>
		<g>
			<g>
				<path fill="#E69724" d="M2.1,2.9v7l3.2-3.2L8,9.4l5.9-5.9V3c0-0.5-0.4-0.9-0.9-0.9c-2.2,0-8,0-10.1,0C2.4,2.1,2.1,2.4,2.1,2.9z"
					/>
			</g>
			<g>
				<polygon fill="#E69724" points="6.6,8 5.2,9.4 6.6,10.9 				"/>
			</g>
			<g>
				<path fill="#DE5823" d="M2,12.6v0.5c0,0.5,0.4,0.9,0.9,0.9h10.2c0.5,0,0.8-0.4,0.8-0.8V6.3L8,12.2L5.2,9.4
					C5.2,9.4,2.1,12.6,2,12.6z"/>
			</g>
		</g>
	</g>
</g>
</svg>
