<?xml version="1.0" encoding="utf-8"?>
<!-- Generator: Adobe Illustrator 19.2.1, SVG Export Plug-In . SVG Version: 6.00 Build 0)  -->
<svg version="1.0" id="Ebene_1" xmlns="http://www.w3.org/2000/svg" xmlns:xlink="http://www.w3.org/1999/xlink" x="0px" y="0px"
	 viewBox="0 0 16 16" style="enable-background:new 0 0 16 16;" xml:space="preserve">
<style type="text/css">
	.st0{fill:#DC4335;}
	.st1{fill:#EDBA2C;}
	.st2{fill:#4B83F2;}
	.st3{fill:#5FA653;}
</style>
<g>
	<path class="st0" d="M5.6,0.5c1.7-0.6,3.7-0.6,5.4,0c1,0.4,1.8,0.9,2.6,1.6c-0.2,0.3-0.5,0.5-0.8,0.8c-0.5,0.5-1,1-1.5,1.5
		c-0.5-0.5-1.1-0.8-1.7-1C8.8,3,8,3,7.2,3.1C6.3,3.3,5.5,3.8,4.8,4.5C4.3,5,3.9,5.6,3.6,6.3C2.8,5.7,1.9,5,1,4.3
		C2,2.5,3.6,1,5.6,0.5z"/>
	<path class="st1" d="M0.3,6.3c0.2-0.7,0.4-1.4,0.7-2c0.9,0.7,1.7,1.3,2.6,2c-0.3,1-0.3,2.2,0,3.2c-0.9,0.7-1.7,1.4-2.6,2
		C0.2,10,0,8.1,0.3,6.3z"/>
	<path class="st2" d="M8.2,6.4c2.5,0,5,0,7.5,0c0.2,1.4,0.2,2.9-0.2,4.2s-1.2,2.6-2.1,3.5c-0.8-0.7-1.7-1.3-2.5-2
		c0.8-0.6,1.5-1.7,1.7-2.7c-1.5,0-2.9,0-4.4,0C8.2,8.5,8.2,7.4,8.2,6.4z"/>
	<path class="st3" d="M1,11.5c0.9-0.7,1.7-1.4,2.6-2c0.3,1,1,1.9,1.8,2.5c0.5,0.4,1.1,0.6,1.8,0.8c0.6,0.1,1.3,0.1,1.9,0
		c0.6-0.1,1.2-0.3,1.8-0.7c0.8,0.7,1.7,1.3,2.5,2c-0.9,0.8-2.1,1.4-3.3,1.7c-1.3,0.3-2.8,0.3-4.1,0c-1.1-0.3-2-0.8-2.9-1.5
		C2.3,13.4,1.5,12.5,1,11.5z"/>
</g>
</svg>
