<?xml version="1.0" encoding="UTF-8" standalone="no"?>
<!-- Generator: Adobe Illustrator 19.2.1, SVG Export Plug-In . SVG Version: 6.00 Build 0)  -->

<svg
   xmlns:dc="http://purl.org/dc/elements/1.1/"
   xmlns:cc="http://creativecommons.org/ns#"
   xmlns:rdf="http://www.w3.org/1999/02/22-rdf-syntax-ns#"
   xmlns:svg="http://www.w3.org/2000/svg"
   xmlns="http://www.w3.org/2000/svg"
   xmlns:sodipodi="http://sodipodi.sourceforge.net/DTD/sodipodi-0.dtd"
   xmlns:inkscape="http://www.inkscape.org/namespaces/inkscape"
   version="1.1"
   id="Ebene_1"
   x="0px"
   y="0px"
   viewBox="0 0 16 16"
   xml:space="preserve"
   inkscape:version="0.48.4 r9939"
   width="100%"
   height="100%"
   sodipodi:docname="googleapicategory-icon.svg"
   inkscape:export-filename="/data/dev/eclipse/eclipse trunk2/plugins/org.knime.google.api/icons/googleapicategory.png"
   inkscape:export-xdpi="298.12"
   inkscape:export-ydpi="298.12"><metadata
     id="metadata27"><rdf:RDF><cc:Work
         rdf:about=""><dc:format>image/svg+xml</dc:format><dc:type
           rdf:resource="http://purl.org/dc/dcmitype/StillImage" /><dc:title></dc:title></cc:Work></rdf:RDF></metadata><defs
     id="defs25" /><sodipodi:namedview
     pagecolor="#ffffff"
     bordercolor="#666666"
     borderopacity="1"
     objecttolerance="10"
     gridtolerance="10"
     guidetolerance="10"
     inkscape:pageopacity="0"
     inkscape:pageshadow="2"
     inkscape:window-width="640"
     inkscape:window-height="480"
     id="namedview23"
     showgrid="false"
     inkscape:zoom="14.75"
     inkscape:cx="8"
     inkscape:cy="8"
     inkscape:window-x="0"
     inkscape:window-y="0"
     inkscape:window-maximized="0"
     inkscape:current-layer="Ebene_1" /><g
     id="g3"
     transform="matrix(1.1089783,0,0,1.1089783,-0.10516401,-0.11170271)"><g
       id="g5"><path
         d="m 5.4,1.4 c 1.4,-0.5 3,-0.5 4.4,0 0.8,0.3 1.5,0.7 2.1,1.3 C 11.7,2.9 11.5,3.1 11.3,3.3 10.9,3.7 10.5,4.1 10.1,4.5 9.7,4.2 9.2,4 8.6,3.8 8,3.6 7.4,3.6 6.7,3.7 6,3.9 5.3,4.3 4.8,4.8 4.4,5.2 4,5.9 3.8,6.4 3.1,5.9 2.4,5.2 1.7,4.7 2.5,3.2 3.8,2 5.4,1.4 z"
         id="path7"
         inkscape:connector-curvature="0"
         style="fill:#c3392e" /></g><g
       id="g9"><path
         d="M 1.1,6.3 C 1.2,5.7 1.4,5.2 1.7,4.7 2.4,5.3 3.1,5.8 3.8,6.4 3.5,7.2 3.5,8.1 3.8,8.9 3.1,9.4 2.4,10 1.7,10.5 1,9.2 0.8,7.7 1.1,6.3 z"
         id="path11"
         inkscape:connector-curvature="0"
         style="fill:#e8bb2c" /></g><g
       id="g13"><path
         d="m 7.5,6.4 c 2,0 4.1,0 6.1,0 0.2,1.1 0.2,2.3 -0.2,3.5 -0.3,1 -0.9,2 -1.7,2.7 C 11,12.1 10.3,11.5 9.6,11 10.3,10.5 10.8,9.8 10.9,9 9.7,9 8.5,9 7.3,9 7.5,8.1 7.5,7.2 7.5,6.4 z"
         id="path15"
         inkscape:connector-curvature="0"
         style="fill:#647cb8" /></g><g
       id="g17"><path
         d="M 1.7,10.5 C 2.4,10 3.1,9.4 3.8,8.9 c 0.3,0.8 0.8,1.5 1.5,2 0.4,0.3 0.9,0.5 1.5,0.6 0.5,0.1 1,0.1 1.6,0 0.5,-0.1 1,-0.3 1.4,-0.6 0.7,0.5 1.4,1.1 2.1,1.6 -0.7,0.7 -1.7,1.2 -2.7,1.4 C 8.1,14.1 7,14.2 5.9,13.9 5,13.7 4.2,13.3 3.5,12.7 2.7,12.1 2.1,11.4 1.7,10.5 z"
         id="path19"
         inkscape:connector-curvature="0"
         style="fill:#629d4b" /></g></g></svg>